<?xml version="1.0" encoding="UTF-8" standalone="no"?>
<!-- Created with Inkscape (http://www.inkscape.org/) -->

<svg
   xmlns:dc="http://purl.org/dc/elements/1.1/"
   xmlns:cc="http://creativecommons.org/ns#"
   xmlns:rdf="http://www.w3.org/1999/02/22-rdf-syntax-ns#"
   xmlns:svg="http://www.w3.org/2000/svg"
   xmlns="http://www.w3.org/2000/svg"
   xmlns:sodipodi="http://sodipodi.sourceforge.net/DTD/sodipodi-0.dtd"
   xmlns:inkscape="http://www.inkscape.org/namespaces/inkscape"
   width="11in"
   height="3in"
   viewBox="0 0 279.4 76.200007"
   version="1.1"
   id="svg8"
   inkscape:version="0.92.1 r15371"
   sodipodi:docname="logo-inverse-color.svg"
   inkscape:export-filename="C:\Users\Kevin\Desktop\logo-inverse-color.png"
   inkscape:export-xdpi="300"
   inkscape:export-ydpi="300">
  <defs
     id="defs2" />
  <sodipodi:namedview
     id="base"
     pagecolor="#ffffff"
     bordercolor="#666666"
     borderopacity="1.0"
     inkscape:pageopacity="0.0"
     inkscape:pageshadow="2"
     inkscape:zoom="0.44980469"
     inkscape:cx="617.12062"
     inkscape:cy="559.10963"
     inkscape:document-units="mm"
     inkscape:current-layer="layer1"
     showgrid="true"
     units="in"
     inkscape:window-width="1440"
     inkscape:window-height="837"
     inkscape:window-x="-8"
     inkscape:window-y="-8"
     inkscape:window-maximized="1">
    <inkscape:grid
       type="xygrid"
       id="grid4712" />
  </sodipodi:namedview>
  <metadata
     id="metadata5">
    <rdf:RDF>
      <cc:Work
         rdf:about="">
        <dc:format>image/svg+xml</dc:format>
        <dc:type
           rdf:resource="http://purl.org/dc/dcmitype/StillImage" />
        <dc:title />
      </cc:Work>
    </rdf:RDF>
  </metadata>
  <g
     inkscape:label="Layer 1"
     inkscape:groupmode="layer"
     id="layer1"
     transform="translate(0,-220.79997)"
     style="display:inline">
    <path
       style="fill:#bf8f33;fill-opacity:1;stroke-width:0.17863634"
       d="m 21.134001,294.42028 c -4.507764,-0.10131 -5.224156,-0.16289 -6.252268,-0.49706 -1.964953,-0.64215 -2.742544,-1.62274 -3.029744,-3.82197 -0.554573,-4.24636 -0.856818,-18.03722 -0.565059,-25.77586 0.263314,-6.98265 0.700482,-13.44046 1.014633,-14.98866 0.641461,-3.16119 2.563643,-5.56096 5.795642,-7.23563 1.658242,-0.85979 3.06464,-1.29637 6.112718,-1.89812 2.350059,-0.46412 2.84296,-0.49284 7.642278,-0.44422 2.091561,0.0198 7.825838,-0.49876 10.896775,-0.98777 4.133646,-0.65834 7.133429,-1.73139 8.400943,-3.0056 0.341094,-0.3429 1.216993,-1.71573 1.946464,-3.05097 0.729438,-1.33512 1.592618,-2.73871 1.918118,-3.11874 0.756262,-0.88368 2.324251,-1.92414 3.800683,-2.52234 0.997681,-0.40406 1.177297,-0.54752 1.30539,-1.0419 0.09858,-0.37996 0.30771,-0.63386 0.620478,-0.75273 0.295284,-0.11235 3.03589,-0.15971 7.323779,-0.12578 7.466988,0.0573 7.187233,0.0104 7.193138,1.07961 10e-4,0.33066 0.0965,0.49152 0.289211,0.49152 0.718296,0 2.89774,1.39351 4.186959,2.67742 1.225321,1.22023 1.408709,1.49947 2.025388,3.08197 0.442534,1.13584 0.955828,2.07758 1.477601,2.7115 l 0.799514,0.97111 0.626781,-0.36989 c 0.556002,-0.32795 0.821788,-0.35863 2.355492,-0.27099 4.393754,0.25052 8.944308,1.71789 10.79455,3.4806 0.578302,0.55098 0.639801,1.35041 0.223307,2.90232 -0.145138,0.54013 -0.264673,1.06779 -0.265845,1.17246 -0.001,0.10297 0.47998,0.42114 1.069208,0.70241 1.802615,0.86155 2.040945,1.27797 2.761155,4.82337 1.19458,5.88134 1.58673,13.07125 1.49073,27.33166 -0.064,9.54221 -0.0779,9.85846 -0.457,10.98616 -0.85959,2.55365 -2.60003,4.67402 -4.798349,5.84471 -2.246989,1.19701 0.07793,1.12192 -34.805401,1.1243 -31.054879,10e-4 -31.646102,0.005 -32.758046,0.35744 -0.802039,0.25092 -1.55774,0.34531 -2.590229,0.32178 -0.801807,-0.0132 -3.748838,-0.0848 -6.548994,-0.15297 z m 50.56033,-1.76254 c 10.0063,-2.00323 17.804468,-9.98337 19.569268,-20.02582 0.389371,-2.21518 0.393365,-6.15778 0.005,-8.34619 -1.85887,-10.56993 -10.163498,-18.71685 -20.745235,-20.35161 -2.338881,-0.36129 -6.674642,-0.22974 -8.842479,0.2687 -4.626562,1.06279 -8.856482,3.33729 -12.117248,6.51551 -3.591786,3.5007 -6.273029,8.66551 -7.095029,13.66642 -0.445804,2.71228 -0.287098,7.30308 0.338234,9.78043 1.841408,7.29589 6.429581,13.04456 13.06837,16.37408 2.506169,1.25744 5.448322,2.11426 8.663835,2.52458 1.286241,0.16554 5.498309,-0.0738 7.151799,-0.4061 z M 33.191958,272.56232 c 0,-16.125 -0.02335,-17.50186 -0.297626,-17.6745 -0.21603,-0.13671 -0.375297,-0.12182 -0.580586,0.0452 -0.254584,0.21123 -0.28295,1.9594 -0.28295,17.43634 0,9.46128 0.05091,17.33333 0.1121,17.49442 0.07317,0.19036 0.275344,0.27316 0.580575,0.23792 l 0.468462,-0.0525 z m 60.378451,0.11216 c 1.319984,-1.67656 1.892702,-3.66457 1.525024,-5.29363 -0.422365,-1.87058 -2.10709,-4.39731 -2.932237,-4.39731 h -0.397432 l 0.242189,1.56311 c 0.235799,1.52143 0.196251,6.49064 -0.06696,8.39546 -0.100314,0.72497 -0.08363,0.75942 0.357892,0.75942 0.350525,0 0.658889,-0.24895 1.271374,-1.02714 z M 27.207245,244.94362 c 1.343571,-0.6854 1.659614,-2.00634 0.658227,-2.75061 -0.779451,-0.57961 -3.047071,-0.63733 -4.144887,-0.10365 -2.548561,1.23382 -1.311681,3.57517 1.747548,3.30836 0.566137,-0.0479 1.348725,-0.25263 1.739112,-0.45156 z"
       id="path4669"
       inkscape:connector-curvature="0" />
    <path
       style="fill:#bf8f33;fill-opacity:1;stroke-width:0.17863634"
       d="m 64.006635,289.12401 c -4.708642,-0.76149 -8.498828,-2.66934 -11.814218,-5.94784 -6.56717,-6.49287 -8.089675,-16.33482 -3.788967,-24.4929 2.030536,-3.85124 5.438877,-7.17062 9.246309,-9.00443 3.222863,-1.55206 5.717929,-2.11823 9.304352,-2.1115 2.680916,0.003 4.208898,0.25102 6.657326,1.06858 9.537417,3.18624 15.498127,13.10703 13.877924,23.0978 -1.416894,8.73717 -8.319343,15.73146 -17.022523,17.24913 -1.372216,0.23938 -5.321081,0.32562 -6.460203,0.14125 z m 5.80567,-9.2811 c 4.213694,-1.06141 7.527862,-4.45061 8.575605,-8.7695 0.409161,-1.68713 0.296422,-4.62179 -0.242134,-6.30417 -1.104952,-3.45109 -3.945075,-6.31198 -7.50856,-7.56332 -1.37852,-0.48436 -1.763564,-0.5412 -3.683105,-0.54615 -2.487367,-0.004 -3.516013,0.24215 -5.70716,1.3786 -1.642546,0.85239 -3.589927,2.68941 -4.532328,4.27568 -2.023353,3.40606 -2.172193,7.78989 -0.385438,11.35151 2.525762,5.03566 8.020491,7.55246 13.48312,6.17735 z"
       id="path4671"
       inkscape:connector-curvature="0" />
    <flowRoot
       xml:space="preserve"
       id="flowRoot4673"
       style="font-style:normal;font-variant:normal;font-weight:normal;font-stretch:normal;font-size:48px;line-height:1.25;font-family:Corbel;-inkscape-font-specification:'Corbel, Normal';font-variant-ligatures:discretionary-ligatures;font-variant-caps:unicase;font-variant-numeric:normal;font-feature-settings:normal;text-align:start;letter-spacing:0px;word-spacing:0px;writing-mode:lr-tb;text-anchor:start;fill:#ffffff;fill-opacity:1;stroke:none;"
       transform="matrix(0.58690062,0,0,0.45453531,-49.713179,210.46585)"><flowRegion
         id="flowRegion4675"
         style="font-style:normal;font-variant:normal;font-weight:normal;font-stretch:normal;font-size:48px;font-family:Corbel;-inkscape-font-specification:'Corbel, Normal';font-variant-ligatures:discretionary-ligatures;font-variant-caps:unicase;font-variant-numeric:normal;font-feature-settings:normal;text-align:start;writing-mode:lr-tb;text-anchor:start;fill:#ffffff;"><rect
           id="rect4677"
           width="292.39771"
           height="58.165146"
           x="284.53757"
           y="58.2812"
           style="font-style:normal;font-variant:normal;font-weight:normal;font-stretch:normal;font-size:48px;font-family:Corbel;-inkscape-font-specification:'Corbel, Normal';font-variant-ligatures:discretionary-ligatures;font-variant-caps:unicase;font-variant-numeric:normal;font-feature-settings:normal;text-align:start;writing-mode:lr-tb;text-anchor:start;fill:#ffffff;" /></flowRegion><flowPara
         id="flowPara4679"
         style="fill:#ffffff;">DOWNEAST</flowPara></flowRoot>    <flowRoot
       xml:space="preserve"
       id="flowRoot4681"
       style="font-style:normal;font-variant:normal;font-weight:normal;font-stretch:normal;font-size:40px;line-height:1.25;font-family:Arial;-inkscape-font-specification:'Arial, Normal';font-variant-ligatures:normal;font-variant-caps:normal;font-variant-numeric:normal;text-align:start;letter-spacing:0px;word-spacing:0px;writing-mode:lr-tb;text-anchor:start;fill:#ffffff;fill-opacity:1;stroke:none;"
       transform="matrix(0.59961654,0,0,0.45453531,-68.571498,193.31659)"><flowRegion
         id="flowRegion4683"
         style="fill:#ffffff;"><rect
           id="rect4685"
           width="165.06323"
           height="53.449028"
           x="355.27893"
           y="147.88695"
           style="fill:#ffffff;" /></flowRegion><flowPara
         id="flowPara4687"
         style="fill:#ffffff;">STUDIO</flowPara></flowRoot>    <rect
       style="fill:#ffffff;fill-opacity:1;stroke-width:0.21832791"
       id="rect4744"
       width="28.403999"
       height="1.846"
       x="112.71246"
       y="268.69455" />
    <rect
       style="display:inline;fill:#ffffff;fill-opacity:1;stroke-width:0.21832791"
       id="rect4744-9"
       width="28.403999"
       height="1.846"
       x="239.71236"
       y="268.69458" />
  </g>
</svg>
